<?xml version="1.0" encoding="UTF-8" standalone="no"?>
<!-- Generator: Adobe Illustrator 16.0.0, SVG Export Plug-In . SVG Version: 6.00 Build 0)  -->

<svg
   xmlns:dc="http://purl.org/dc/elements/1.1/"
   xmlns:cc="http://creativecommons.org/ns#"
   xmlns:rdf="http://www.w3.org/1999/02/22-rdf-syntax-ns#"
   xmlns:svg="http://www.w3.org/2000/svg"
   xmlns="http://www.w3.org/2000/svg"
   xmlns:sodipodi="http://sodipodi.sourceforge.net/DTD/sodipodi-0.dtd"
   xmlns:inkscape="http://www.inkscape.org/namespaces/inkscape"
   version="1.1"
   id="Capa_1"
   x="0px"
   y="0px"
   width="44.236px"
   height="44.236px"
   viewBox="0 0 44.236 44.236"
   style="enable-background:new 0 0 44.236 44.236;"
   xml:space="preserve"
   inkscape:version="0.91 r13725"
   sodipodi:docname="crop.svg"><metadata
     id="metadata4415"><rdf:RDF><cc:Work
         rdf:about=""><dc:format>image/svg+xml</dc:format><dc:type
           rdf:resource="http://purl.org/dc/dcmitype/StillImage" /></cc:Work></rdf:RDF></metadata><defs
     id="defs4413" /><sodipodi:namedview
     pagecolor="#ffffff"
     bordercolor="#666666"
     borderopacity="1"
     objecttolerance="10"
     gridtolerance="10"
     guidetolerance="10"
     inkscape:pageopacity="0"
     inkscape:pageshadow="2"
     inkscape:window-width="1280"
     inkscape:window-height="1000"
     id="namedview4411"
     showgrid="false"
     inkscape:zoom="18.318663"
     inkscape:cx="24.312134"
     inkscape:cy="20.639682"
     inkscape:window-x="0"
     inkscape:window-y="24"
     inkscape:window-maximized="1"
     inkscape:current-layer="Capa_1" /><g
     id="g4373"><g
       id="g4375"><path
         d="M22.118,44.236C9.922,44.236,0,34.314,0,22.119C0,9.923,9.922,0,22.118,0s22.118,9.922,22.118,22.119    S34.314,44.236,22.118,44.236z M22.118,1.5C10.75,1.5,1.5,10.75,1.5,22.119s9.25,20.619,20.618,20.619s20.618-9.25,20.618-20.619    S33.486,1.5,22.118,1.5z"
         id="path4377" /><path
         d="M18.674,27.842c-0.192,0-0.384-0.072-0.53-0.219l-4.333-4.327c-0.293-0.293-0.293-0.768-0.001-1.061    c0.293-0.294,0.769-0.293,1.061-0.001l3.803,3.798l10.693-10.693c0.293-0.293,0.768-0.293,1.061,0s0.293,0.768,0,1.061    L19.204,27.623C19.058,27.77,18.866,27.842,18.674,27.842z"
         id="path4379" /></g></g><g
     id="g4381" /><g
     id="g4383" /><g
     id="g4385" /><g
     id="g4387" /><g
     id="g4389" /><g
     id="g4391" /><g
     id="g4393" /><g
     id="g4395" /><g
     id="g4397" /><g
     id="g4399" /><g
     id="g4401" /><g
     id="g4403" /><g
     id="g4405" /><g
     id="g4407" /><g
     id="g4409" /><path
     style="fill:#f0f0f0;fill-opacity:1;stroke:#000000;stroke-width:0.06550696;stroke-miterlimit:4;stroke-dasharray:none;stroke-opacity:1"
     d="M 20.529107,42.657905 C 18.585643,42.466164 17.030897,42.139707 15.425023,41.586177 13.119229,40.791392 11.036093,39.627187 9.0829292,38.041762 8.3247816,37.426357 6.9267117,36.039282 6.2866526,35.267475 1.3869166,29.359197 0.16455344,21.209221 3.1239029,14.18018 5.6485934,8.1835395 10.841547,3.7253963 17.153044,2.1361822 c 0.757674,-0.1907797 1.951946,-0.4047994 2.830171,-0.507181 0.923003,-0.1076016 3.526193,-0.090222 4.503604,0.030068 3.323445,0.409015 6.375623,1.5388226 9.089092,3.3644591 4.838675,3.2554868 8.097402,8.4310077 8.920424,14.1674467 0.846234,5.898225 -0.905048,11.866897 -4.805135,16.376741 -0.259647,0.30024 -0.825068,0.89044 -1.256493,1.311554 -3.20797,3.131306 -7.256268,5.082773 -11.78412,5.680491 -0.64775,0.08551 -3.549233,0.154601 -4.12148,0.09814 z m 4.278452,-20.621819 5.808026,-5.807267 0.02598,-0.270382 c 0.03082,-0.320719 -0.06878,-0.550769 -0.314052,-0.72542 -0.198215,-0.141141 -0.568385,-0.157408 -0.79876,-0.0351 -0.08591,0.04561 -2.563341,2.491689 -5.505396,5.435727 l -5.34919,5.352797 -1.965754,-1.961252 c -1.323585,-1.320553 -2.015873,-1.97352 -2.119172,-1.998807 -0.6578,-0.161028 -1.240839,0.492939 -0.942164,1.05678 0.04295,0.08108 1.118343,1.185286 2.38977,2.453801 l 2.311685,2.306391 0.325501,0 0.3255,0 5.808026,-5.807267 z"
     id="path6222"
     inkscape:connector-curvature="0" /></svg>