<?xml version="1.0" encoding="UTF-8" standalone="no"?>
<!-- Generator: Adobe Illustrator 16.0.0, SVG Export Plug-In . SVG Version: 6.00 Build 0)  -->

<svg
   xmlns:dc="http://purl.org/dc/elements/1.1/"
   xmlns:cc="http://creativecommons.org/ns#"
   xmlns:rdf="http://www.w3.org/1999/02/22-rdf-syntax-ns#"
   xmlns:svg="http://www.w3.org/2000/svg"
   xmlns="http://www.w3.org/2000/svg"
   xmlns:sodipodi="http://sodipodi.sourceforge.net/DTD/sodipodi-0.dtd"
   xmlns:inkscape="http://www.inkscape.org/namespaces/inkscape"
   version="1.1"
   id="Capa_1"
   x="0px"
   y="0px"
   width="44.238px"
   height="44.238px"
   viewBox="0 0 44.238 44.238"
   style="enable-background:new 0 0 44.238 44.238;"
   xml:space="preserve"
   inkscape:version="0.91 r13725"
   sodipodi:docname="exit.svg"><metadata
     id="metadata4274"><rdf:RDF><cc:Work
         rdf:about=""><dc:format>image/svg+xml</dc:format><dc:type
           rdf:resource="http://purl.org/dc/dcmitype/StillImage" /></cc:Work></rdf:RDF></metadata><defs
     id="defs4272" /><sodipodi:namedview
     pagecolor="#ffffff"
     bordercolor="#666666"
     borderopacity="1"
     objecttolerance="10"
     gridtolerance="10"
     guidetolerance="10"
     inkscape:pageopacity="0"
     inkscape:pageshadow="2"
     inkscape:window-width="1366"
     inkscape:window-height="744"
     id="namedview4270"
     showgrid="false"
     inkscape:zoom="12.952665"
     inkscape:cx="22.118999"
     inkscape:cy="22.118999"
     inkscape:window-x="0"
     inkscape:window-y="24"
     inkscape:window-maximized="1"
     inkscape:current-layer="Capa_1" /><g
     id="g4226"><g
       id="g4228"><g
         id="g4230"><path
           d="M15.533,29.455c-0.192,0-0.384-0.073-0.53-0.22c-0.293-0.293-0.293-0.769,0-1.062l13.171-13.171     c0.293-0.293,0.768-0.293,1.061,0s0.293,0.768,0,1.061L16.063,29.235C15.917,29.382,15.725,29.455,15.533,29.455z"
           id="path4232" /></g><g
         id="g4234"><path
           d="M28.704,29.455c-0.192,0-0.384-0.073-0.53-0.22L15.002,16.064c-0.293-0.293-0.293-0.768,0-1.061s0.768-0.293,1.061,0     l13.171,13.171c0.293,0.293,0.293,0.769,0,1.062C29.088,29.382,28.896,29.455,28.704,29.455z"
           id="path4236" /></g><path
         d="M22.119,44.237C9.922,44.237,0,34.315,0,22.12C0,9.924,9.922,0.001,22.119,0.001S44.238,9.923,44.238,22.12    S34.314,44.237,22.119,44.237z M22.119,1.501C10.75,1.501,1.5,10.751,1.5,22.12s9.25,20.619,20.619,20.619    s20.619-9.25,20.619-20.619S33.488,1.501,22.119,1.501z"
         id="path4238" /></g></g><g
     id="g4240" /><g
     id="g4242" /><g
     id="g4244" /><g
     id="g4246" /><g
     id="g4248" /><g
     id="g4250" /><g
     id="g4252" /><g
     id="g4254" /><g
     id="g4256" /><g
     id="g4258" /><g
     id="g4260" /><g
     id="g4262" /><g
     id="g4264" /><g
     id="g4266" /><g
     id="g4268" /><path
     style="fill:#f0f0f0;fill-opacity:1;stroke:#000000;stroke-width:0.09264503;stroke-miterlimit:4;stroke-dasharray:none;stroke-opacity:1"
     d="M 20.605797,42.65103 C 16.213635,42.23013 12.534537,40.77878 9.256782,38.174013 8.4135216,37.503891 6.7341083,35.824477 6.0639859,34.981217 2.0363734,29.912999 0.60319716,23.371654 2.1566084,17.14705 2.510314,15.729732 2.9636963,14.502704 3.6542582,13.09383 7.678841,4.8829365 16.539327,0.32414417 25.546865,1.8299052 c 3.182302,0.5319751 6.255612,1.8548838 8.899892,3.8309655 1.245008,0.9303995 3.19971,2.8850114 4.12979,4.1295991 2.708293,3.6241052 4.103413,7.8134692 4.10831,12.3367232 0.006,5.566748 -2.223469,10.83591 -6.223616,14.708814 -1.670139,1.617014 -3.268528,2.743636 -5.317072,3.747734 -2.360593,1.157048 -4.63474,1.796017 -7.257194,2.03906 -0.785142,0.07276 -2.649099,0.0888 -3.281178,0.02823 z M 15.843514,29.414437 c 0.09275,-0.04691 1.541102,-1.453955 3.218564,-3.126777 l 3.04993,-3.041493 3.010599,3.016011 c 1.655829,1.658805 3.104413,3.065854 3.219076,3.126776 0.339793,0.180534 0.591177,0.137197 0.880102,-0.151729 0.206941,-0.206941 0.262494,-0.324936 0.262494,-0.55754 0,-0.285541 -0.100709,-0.395865 -3.126327,-3.42481 l -3.126326,-3.129765 3.087792,-3.087068 c 3.297857,-3.297084 3.302385,-3.302698 3.085615,-3.826024 -0.113629,-0.274327 -0.428055,-0.458298 -0.783277,-0.458298 -0.229588,0 -0.537137,0.284267 -3.381739,3.125745 l -3.129183,3.125744 -3.128518,-3.125744 c -3.028657,-3.025972 -3.137942,-3.125745 -3.423783,-3.125745 -0.232853,0 -0.35075,0.05549 -0.55776,0.262494 -0.276897,0.276898 -0.331662,0.537337 -0.177211,0.842741 0.0469,0.09275 1.453955,1.541102 3.126777,3.218564 l 3.041493,3.04993 -3.016011,3.010599 c -1.658805,1.655829 -3.068929,3.110359 -3.133609,3.232289 -0.328906,0.620036 0.379398,1.358614 1.001302,1.0441 z"
     id="path4276"
     inkscape:connector-curvature="0" /></svg>