<?xml version="1.0" encoding="UTF-8" standalone="no"?>
<!-- Generator: Adobe Illustrator 16.0.0, SVG Export Plug-In . SVG Version: 6.00 Build 0)  -->

<svg
   xmlns:dc="http://purl.org/dc/elements/1.1/"
   xmlns:cc="http://creativecommons.org/ns#"
   xmlns:rdf="http://www.w3.org/1999/02/22-rdf-syntax-ns#"
   xmlns:svg="http://www.w3.org/2000/svg"
   xmlns="http://www.w3.org/2000/svg"
   xmlns:sodipodi="http://sodipodi.sourceforge.net/DTD/sodipodi-0.dtd"
   xmlns:inkscape="http://www.inkscape.org/namespaces/inkscape"
   version="1.1"
   id="Capa_1"
   x="0px"
   y="0px"
   width="44.236px"
   height="44.236px"
   viewBox="0 0 44.236 44.236"
   style="enable-background:new 0 0 44.236 44.236;"
   xml:space="preserve"
   inkscape:version="0.91 r13725"
   sodipodi:docname="forward.svg"><metadata
     id="metadata4460"><rdf:RDF><cc:Work
         rdf:about=""><dc:format>image/svg+xml</dc:format><dc:type
           rdf:resource="http://purl.org/dc/dcmitype/StillImage" /></cc:Work></rdf:RDF></metadata><defs
     id="defs4458" /><sodipodi:namedview
     pagecolor="#ffffff"
     bordercolor="#666666"
     borderopacity="1"
     objecttolerance="10"
     gridtolerance="10"
     guidetolerance="10"
     inkscape:pageopacity="0"
     inkscape:pageshadow="2"
     inkscape:window-width="1280"
     inkscape:window-height="1000"
     id="namedview4456"
     showgrid="false"
     inkscape:zoom="15.089719"
     inkscape:cx="33.194987"
     inkscape:cy="22.384515"
     inkscape:window-x="0"
     inkscape:window-y="24"
     inkscape:window-maximized="1"
     inkscape:current-layer="Capa_1" /><g
     id="g4418"><g
       id="g4420"><path
         d="M22.118,44.236C9.922,44.236,0,34.314,0,22.118S9.922,0,22.118,0s22.118,9.922,22.118,22.118S34.314,44.236,22.118,44.236    z M22.118,1.5C10.75,1.5,1.5,10.749,1.5,22.118c0,11.368,9.25,20.618,20.618,20.618c11.37,0,20.618-9.25,20.618-20.618    C42.736,10.749,33.488,1.5,22.118,1.5z"
         id="path4422" /><path
         d="M19.341,29.884c-0.192,0-0.384-0.073-0.53-0.22c-0.293-0.292-0.293-0.768,0-1.061l6.796-6.804l-6.796-6.803    c-0.292-0.293-0.292-0.769,0-1.061c0.293-0.293,0.768-0.293,1.061,0l7.325,7.333c0.293,0.293,0.293,0.768,0,1.061l-7.325,7.333    C19.725,29.811,19.533,29.884,19.341,29.884z"
         id="path4424" /></g></g><g
     id="g4426" /><g
     id="g4428" /><g
     id="g4430" /><g
     id="g4432" /><g
     id="g4434" /><g
     id="g4436" /><g
     id="g4438" /><g
     id="g4440" /><g
     id="g4442" /><g
     id="g4444" /><g
     id="g4446" /><g
     id="g4448" /><g
     id="g4450" /><g
     id="g4452" /><g
     id="g4454" /><path
     style="fill:#f0f0f0;fill-opacity:1;stroke:#000000;stroke-width:0.07952435;stroke-miterlimit:4;stroke-dasharray:none;stroke-opacity:1"
     d="M 20.85546,42.67373 C 18.639177,42.478765 17.143869,42.173119 15.355026,41.549422 8.510565,39.163037 3.3779096,33.291403 1.9454971,26.209241 1.6701106,24.847671 1.5559796,23.659733 1.5542033,22.136447 1.552506,20.680848 1.6187073,19.864117 1.8415854,18.590987 3.4313885,9.509677 10.934888,2.5353262 20.088294,1.6310402 c 0.920555,-0.090944 3.130605,-0.092332 4.023956,-0.00253 3.955813,0.39766 7.675623,1.906552 10.812247,4.3858462 0.873569,0.6904983 2.591632,2.4099174 3.296187,3.2987875 5.01229,6.3235311 5.892969,14.9663701 2.252041,22.1011401 -3.121941,6.117763 -9.034083,10.27335 -15.839859,11.133684 -0.798793,0.100978 -3.163994,0.179721 -3.777406,0.125759 z m 2.696349,-16.673577 3.864409,-3.866068 0,-0.303659 c 0,-0.231106 -0.04579,-0.365414 -0.191632,-0.562117 -0.105399,-0.142151 -1.827598,-1.889196 -3.827109,-3.882322 -2.437029,-2.429246 -3.695697,-3.638654 -3.818156,-3.668727 -0.603427,-0.148187 -1.137284,0.371756 -0.979191,0.953671 0.05326,0.196052 0.720937,0.896934 3.513142,3.687873 l 3.447383,3.445819 -3.445976,3.446443 c -2.573833,2.574184 -3.461942,3.502117 -3.509062,3.666416 -0.148464,0.517664 0.297387,1.051543 0.820866,0.982935 0.242349,-0.03176 0.535928,-0.309326 4.125326,-3.900264 z"
     id="path6216"
     inkscape:connector-curvature="0" /></svg>
