<?xml version="1.0" encoding="UTF-8" standalone="no"?>
<!-- Generator: Adobe Illustrator 16.0.0, SVG Export Plug-In . SVG Version: 6.00 Build 0)  -->

<svg
   xmlns:dc="http://purl.org/dc/elements/1.1/"
   xmlns:cc="http://creativecommons.org/ns#"
   xmlns:rdf="http://www.w3.org/1999/02/22-rdf-syntax-ns#"
   xmlns:svg="http://www.w3.org/2000/svg"
   xmlns="http://www.w3.org/2000/svg"
   xmlns:sodipodi="http://sodipodi.sourceforge.net/DTD/sodipodi-0.dtd"
   xmlns:inkscape="http://www.inkscape.org/namespaces/inkscape"
   version="1.1"
   id="Capa_1"
   x="0px"
   y="0px"
   width="44.236px"
   height="44.236px"
   viewBox="0 0 44.236 44.236"
   style="enable-background:new 0 0 44.236 44.236;"
   xml:space="preserve"
   inkscape:version="0.91 r13725"
   sodipodi:docname="info.svg"><metadata
     id="metadata4278"><rdf:RDF><cc:Work
         rdf:about=""><dc:format>image/svg+xml</dc:format><dc:type
           rdf:resource="http://purl.org/dc/dcmitype/StillImage" /><dc:title></dc:title></cc:Work></rdf:RDF></metadata><defs
     id="defs4276" /><sodipodi:namedview
     pagecolor="#ffffff"
     bordercolor="#666666"
     borderopacity="1"
     objecttolerance="10"
     gridtolerance="10"
     guidetolerance="10"
     inkscape:pageopacity="0"
     inkscape:pageshadow="2"
     inkscape:window-width="1280"
     inkscape:window-height="1000"
     id="namedview4274"
     showgrid="false"
     inkscape:zoom="12.953251"
     inkscape:cx="22.118"
     inkscape:cy="22.118"
     inkscape:window-x="0"
     inkscape:window-y="24"
     inkscape:window-maximized="1"
     inkscape:current-layer="Capa_1" /><g
     id="g4228"
     transform="matrix(1,0,0,-1,0,44.236)"><g
       id="g4230"><path
         d="M 22.118,44.236 C 9.922,44.236 0,34.314 0,22.118 0,9.922 9.922,0 22.118,0 c 12.196,0 22.118,9.922 22.118,22.118 0,12.196 -9.922,22.118 -22.118,22.118 z m 0,-42.736 C 10.749,1.5 1.5,10.749 1.5,22.118 c 0,11.368 9.249,20.618 20.618,20.618 11.368,0 20.618,-9.25 20.618,-20.618 C 42.736,10.749 33.486,1.5 22.118,1.5 Z"
         id="path4232"
         inkscape:connector-curvature="0" /><g
         id="g4234"><path
           d="m 22.35,24.956 c -0.414,0 -0.75,-0.336 -0.75,-0.75 l 0,-11.628 c 0,-0.414 0.336,-0.75 0.75,-0.75 0.414,0 0.75,0.336 0.75,0.75 l 0,11.628 c 0,0.414 -0.336,0.75 -0.75,0.75 z"
           id="path4236"
           inkscape:connector-curvature="0" /></g><g
         id="g4238"><circle
           cx="22.35"
           cy="29.631001"
           r="1.41"
           id="circle4240" /><path
           d="m 22.35,31.291 c -0.915,0 -1.66,-0.745 -1.66,-1.66 0,-0.915 0.745,-1.66 1.66,-1.66 0.916,0 1.66,0.745 1.66,1.66 0,0.915 -0.744,1.66 -1.66,1.66 z m 0,-2.82 c -0.64,0 -1.16,0.521 -1.16,1.16 0,0.639 0.521,1.16 1.16,1.16 0.639,0 1.16,-0.521 1.16,-1.16 0,-0.639 -0.521,-1.16 -1.16,-1.16 z"
           id="path4242"
           inkscape:connector-curvature="0" /></g></g></g><g
     id="g4244"
     transform="matrix(1,0,0,-1,0,44.236)" /><g
     id="g4246"
     transform="matrix(1,0,0,-1,0,44.236)" /><g
     id="g4248"
     transform="matrix(1,0,0,-1,0,44.236)" /><g
     id="g4250"
     transform="matrix(1,0,0,-1,0,44.236)" /><g
     id="g4252"
     transform="matrix(1,0,0,-1,0,44.236)" /><g
     id="g4254"
     transform="matrix(1,0,0,-1,0,44.236)" /><g
     id="g4256"
     transform="matrix(1,0,0,-1,0,44.236)" /><g
     id="g4258"
     transform="matrix(1,0,0,-1,0,44.236)" /><g
     id="g4260"
     transform="matrix(1,0,0,-1,0,44.236)" /><g
     id="g4262"
     transform="matrix(1,0,0,-1,0,44.236)" /><g
     id="g4264"
     transform="matrix(1,0,0,-1,0,44.236)" /><g
     id="g4266"
     transform="matrix(1,0,0,-1,0,44.236)" /><g
     id="g4268"
     transform="matrix(1,0,0,-1,0,44.236)" /><g
     id="g4270"
     transform="matrix(1,0,0,-1,0,44.236)" /><g
     id="g4272"
     transform="matrix(1,0,0,-1,0,44.236)" /><path
     style="fill:#f0f0f0;fill-opacity:1;stroke:#000000;stroke-width:0.09264084;stroke-miterlimit:4;stroke-dasharray:none;stroke-opacity:1"
     d="M 20.46655,42.641151 C 15.508841,42.192793 11.048286,40.120005 7.5821402,36.65386 4.4024089,33.474129 2.434507,29.547472 1.7404267,24.997586 1.611857,24.154777 1.5743701,23.542775 1.5701907,22.218361 1.564474,20.406782 1.6416557,19.568503 1.9575767,18.010923 3.5885467,9.9697777 10.012849,3.5564604 18.041803,1.9541974 c 1.656223,-0.3305168 2.702083,-0.4125635 4.660724,-0.3656295 1.912245,0.045822 2.946337,0.1873727 4.671451,0.6394452 7.075464,1.8541525 12.77934,7.5587904 14.634845,14.6367989 0.519082,1.98009 0.615198,2.782076 0.618477,5.160547 0.0031,2.223099 -0.04149,2.723932 -0.392939,4.417098 -1.055338,5.084269 -4.24802,9.779584 -8.675217,12.7582 -2.630808,1.770006 -5.637486,2.909447 -8.76228,3.32064 -1.10855,0.145875 -3.355049,0.208053 -4.330314,0.119854 z m 2.408017,-10.45618 0.262482,-0.262482 0,-6.033209 c 0,-6.61528 0.01734,-6.366896 -0.458277,-6.563904 -0.321312,-0.133092 -0.734108,-0.04224 -0.92799,0.204242 -0.155835,0.198113 -0.157747,0.274366 -0.157747,6.294062 0,4.01434 0.027,6.143977 0.07914,6.241397 0.104621,0.195487 0.446174,0.37544 0.719886,0.379285 0.149908,0.0021 0.303666,-0.08055 0.482504,-0.259391 z M 22.85789,16.218144 c 0.192009,-0.05702 0.459637,-0.235633 0.67627,-0.451336 0.474672,-0.472633 0.61019,-0.989344 0.425815,-1.623572 -0.362347,-1.246429 -1.884626,-1.634904 -2.805056,-0.715831 -0.526561,0.525786 -0.634112,1.249753 -0.288647,1.943009 0.376841,0.756224 1.167084,1.092589 1.991618,0.84773 z"
     id="path4280"
     inkscape:connector-curvature="0" /></svg>