<?xml version="1.0" encoding="UTF-8" standalone="no"?>
<!-- Generator: Adobe Illustrator 16.0.0, SVG Export Plug-In . SVG Version: 6.00 Build 0)  -->

<svg
   xmlns:dc="http://purl.org/dc/elements/1.1/"
   xmlns:cc="http://creativecommons.org/ns#"
   xmlns:rdf="http://www.w3.org/1999/02/22-rdf-syntax-ns#"
   xmlns:svg="http://www.w3.org/2000/svg"
   xmlns="http://www.w3.org/2000/svg"
   xmlns:sodipodi="http://sodipodi.sourceforge.net/DTD/sodipodi-0.dtd"
   xmlns:inkscape="http://www.inkscape.org/namespaces/inkscape"
   version="1.1"
   id="Capa_1"
   x="0px"
   y="0px"
   width="44.236px"
   height="44.236px"
   viewBox="0 0 44.236 44.236"
   style="enable-background:new 0 0 44.236 44.236;"
   xml:space="preserve"
   inkscape:version="0.91 r13725"
   sodipodi:docname="restart.svg"><metadata
     id="metadata4278"><rdf:RDF><cc:Work
         rdf:about=""><dc:format>image/svg+xml</dc:format><dc:type
           rdf:resource="http://purl.org/dc/dcmitype/StillImage" /></cc:Work></rdf:RDF></metadata><defs
     id="defs4276" /><sodipodi:namedview
     pagecolor="#ffffff"
     bordercolor="#666666"
     borderopacity="1"
     objecttolerance="10"
     gridtolerance="10"
     guidetolerance="10"
     inkscape:pageopacity="0"
     inkscape:pageshadow="2"
     inkscape:window-width="1280"
     inkscape:window-height="1000"
     id="namedview4274"
     showgrid="false"
     inkscape:zoom="12.953251"
     inkscape:cx="22.118"
     inkscape:cy="22.118"
     inkscape:window-x="0"
     inkscape:window-y="24"
     inkscape:window-maximized="1"
     inkscape:current-layer="Capa_1" /><g
     id="g4228"><g
       id="g4230"><path
         d="M22.118,44.236C9.922,44.236,0,34.314,0,22.119C0,9.923,9.922,0,22.118,0s22.118,9.922,22.118,22.119    S34.314,44.236,22.118,44.236z M22.118,1.5C10.75,1.5,1.5,10.75,1.5,22.119s9.25,20.619,20.618,20.619s20.618-9.25,20.618-20.619    S33.486,1.5,22.118,1.5z"
         id="path4232" /><path
         d="M22.118,30.6c-4.676,0-8.48-3.805-8.48-8.48c0-4.676,3.804-8.481,8.48-8.481c4.677,0,8.481,3.805,8.481,8.481    c0,0.414-0.336,0.75-0.75,0.75s-0.75-0.336-0.75-0.75c0-3.849-3.133-6.981-6.981-6.981c-3.849,0-6.98,3.132-6.98,6.981    c0,3.849,3.131,6.98,6.98,6.98c0.414,0,0.75,0.336,0.75,0.75S22.532,30.6,22.118,30.6z"
         id="path4234" /><g
         id="g4236"><path
           d="M29.85,24.009c-0.192,0-0.384-0.073-0.531-0.219l-3.332-3.327c-0.293-0.292-0.293-0.768-0.002-1.061     c0.293-0.294,0.768-0.294,1.062-0.001l3.333,3.327c0.293,0.292,0.293,0.768,0.001,1.061     C30.232,23.936,30.042,24.009,29.85,24.009z"
           id="path4238" /></g><g
         id="g4240"><path
           d="M29.85,24.009c-0.192,0-0.385-0.073-0.531-0.22c-0.293-0.293-0.293-0.768,0-1.061l3.334-3.327     c0.293-0.292,0.768-0.292,1.061,0.001c0.292,0.293,0.292,0.768-0.001,1.061l-3.333,3.327     C30.232,23.936,30.041,24.009,29.85,24.009z"
           id="path4242" /></g></g></g><g
     id="g4244" /><g
     id="g4246" /><g
     id="g4248" /><g
     id="g4250" /><g
     id="g4252" /><g
     id="g4254" /><g
     id="g4256" /><g
     id="g4258" /><g
     id="g4260" /><g
     id="g4262" /><g
     id="g4264" /><g
     id="g4266" /><g
     id="g4268" /><g
     id="g4270" /><g
     id="g4272" /><path
     style="fill:#f0f0f0;fill-opacity:1;stroke:#000000;stroke-width:0.09264084;stroke-miterlimit:4;stroke-dasharray:none;stroke-opacity:1"
     d="M 20.46655,42.63541 C 11.654506,41.910561 4.2421046,35.591024 2.1328777,27.004804 1.7188376,25.319334 1.576146,24.105541 1.5701907,22.218361 1.564474,20.406782 1.6416557,19.568503 1.9575767,18.010923 2.4505591,15.580379 3.488484,13.029861 4.8103182,11.000811 6.4077622,8.5486923 8.754602,6.2305525 11.209541,4.6798453 13.824686,3.0279408 16.96887,1.949895 20.077703,1.6392196 c 1.339001,-0.1338107 4.070492,-0.054325 5.298166,0.1541751 4.339824,0.7370469 8.215453,2.7275663 11.274872,5.7907637 3.047801,3.0515646 4.976431,6.7720166 5.765265,11.1215706 0.186396,1.027773 0.203474,1.296365 0.208618,3.28103 0.0059,2.267427 -0.03652,2.751492 -0.390263,4.455698 -1.063103,5.121676 -4.251686,9.790153 -8.745892,12.805053 -1.11719,0.749458 -3.056669,1.743156 -4.280361,2.193055 -2.734249,1.005267 -5.857074,1.432112 -8.741558,1.194845 z m 2.11424,-12.169797 c 0.372925,-0.232945 0.42383,-0.761156 0.107475,-1.115218 -0.20442,-0.228787 -0.260259,-0.246704 -0.950309,-0.304925 -1.854616,-0.156482 -3.28203,-0.798906 -4.515275,-2.032151 -0.895839,-0.895838 -1.485215,-1.918329 -1.829387,-3.173743 -0.141468,-0.516028 -0.168173,-0.808065 -0.162363,-1.775616 0.0061,-1.021346 0.03125,-1.238081 0.212821,-1.836475 0.758592,-2.500041 2.638701,-4.267867 5.204554,-4.89373 0.773944,-0.188781 2.343979,-0.16748 3.144949,0.04267 0.861294,0.225975 2.056441,0.834869 2.70001,1.375579 1.29691,1.089633 2.226047,2.666085 2.47102,4.192546 l 0.05575,0.347404 -1.075562,-1.06151 c -1.042015,-1.0284 -1.085789,-1.06151 -1.403419,-1.06151 -0.464383,0 -0.779184,0.316591 -0.779184,0.783614 0,0.330989 0.0073,0.339609 1.873872,2.206159 l 1.873871,1.873871 0.343894,0 0.343894,0 1.873871,-1.873871 c 1.86655,-1.86655 1.873872,-1.87517 1.873872,-2.206159 0,-0.467116 -0.31479,-0.783614 -0.779386,-0.783614 -0.318602,0 -0.359867,0.03154 -1.431499,1.094035 -0.709963,0.703912 -1.115566,1.054909 -1.137446,0.984309 -0.0187,-0.06035 -0.07178,-0.358204 -0.11794,-0.661899 -0.243188,-1.599814 -1.207625,-3.403179 -2.455824,-4.59205 -1.731969,-1.649648 -3.882784,-2.457869 -6.275615,-2.358215 -2.219268,0.09243 -4.183271,0.982192 -5.745787,2.603056 -1.049926,1.089131 -1.703882,2.227877 -2.103667,3.663159 -0.281292,1.009875 -0.336864,2.851582 -0.117952,3.909065 0.714728,3.45259 3.563597,6.193522 6.963797,6.699952 1.109612,0.165268 1.51664,0.155356 1.836962,-0.04473 z"
     id="path4280"
     inkscape:connector-curvature="0" /></svg>