<?xml version="1.0" encoding="UTF-8" standalone="no"?>
<!-- Generator: Adobe Illustrator 16.0.0, SVG Export Plug-In . SVG Version: 6.00 Build 0)  -->

<svg
   xmlns:dc="http://purl.org/dc/elements/1.1/"
   xmlns:cc="http://creativecommons.org/ns#"
   xmlns:rdf="http://www.w3.org/1999/02/22-rdf-syntax-ns#"
   xmlns:svg="http://www.w3.org/2000/svg"
   xmlns="http://www.w3.org/2000/svg"
   xmlns:sodipodi="http://sodipodi.sourceforge.net/DTD/sodipodi-0.dtd"
   xmlns:inkscape="http://www.inkscape.org/namespaces/inkscape"
   version="1.1"
   id="Capa_1"
   x="0px"
   y="0px"
   width="44.236px"
   height="44.236px"
   viewBox="0 0 44.236 44.236"
   style="enable-background:new 0 0 44.236 44.236;"
   xml:space="preserve"
   inkscape:version="0.91 r13725"
   sodipodi:docname="settings.svg"><metadata
     id="metadata4513"><rdf:RDF><cc:Work
         rdf:about=""><dc:format>image/svg+xml</dc:format><dc:type
           rdf:resource="http://purl.org/dc/dcmitype/StillImage" /></cc:Work></rdf:RDF></metadata><defs
     id="defs4511" /><sodipodi:namedview
     pagecolor="#ffffff"
     bordercolor="#666666"
     borderopacity="1"
     objecttolerance="10"
     gridtolerance="10"
     guidetolerance="10"
     inkscape:pageopacity="0"
     inkscape:pageshadow="2"
     inkscape:window-width="1280"
     inkscape:window-height="1000"
     id="namedview4509"
     showgrid="false"
     inkscape:zoom="10.670042"
     inkscape:cx="25.908135"
     inkscape:cy="21.341932"
     inkscape:window-x="0"
     inkscape:window-y="24"
     inkscape:window-maximized="1"
     inkscape:current-layer="Capa_1" /><g
     id="g4463"><g
       id="g4465"><path
         d="M22.118,44.236C9.922,44.236,0,34.314,0,22.119C0,9.923,9.922,0,22.118,0s22.118,9.923,22.118,22.119    C44.236,34.314,34.314,44.236,22.118,44.236z M22.118,1.5C10.75,1.5,1.5,10.75,1.5,22.119s9.25,20.617,20.618,20.617    s20.618-9.248,20.618-20.617S33.486,1.5,22.118,1.5z"
         id="path4467" /><g
         id="g4469"><circle
           cx="22.118"
           cy="22.438"
           r="1.41"
           id="circle4471" /><path
           d="M22.118,24.098c-0.916,0-1.66-0.744-1.66-1.66c0-0.915,0.745-1.66,1.66-1.66s1.659,0.745,1.659,1.66     C23.777,23.354,23.034,24.098,22.118,24.098z M22.118,21.277c-0.64,0-1.16,0.521-1.16,1.16s0.521,1.161,1.16,1.161     c0.639,0,1.159-0.521,1.159-1.161S22.758,21.277,22.118,21.277z"
           id="path4473" /></g><g
         id="g4475"><path
           d="M22.118,32.42c-0.6,0-1.208-0.061-1.86-0.182c-0.446-0.062-0.83-0.444-0.898-0.926l-0.357-1.838     c-0.461-0.207-0.896-0.459-1.287-0.744l-1.798,0.623c-0.087,0.041-0.233,0.07-0.381,0.07c-0.317,0-0.622-0.146-0.837-0.398     c-0.836-0.952-1.482-2.074-1.862-3.233c-0.183-0.418-0.023-0.974,0.403-1.257l1.358-1.186c-0.023-0.23-0.035-0.479-0.035-0.752     c0-0.271,0.011-0.52,0.035-0.75l-1.435-1.245c-0.35-0.226-0.51-0.78-0.303-1.262c0.356-1.098,1.003-2.219,1.847-3.181     c0.299-0.355,0.822-0.488,1.261-0.298l1.746,0.603c0.39-0.284,0.825-0.537,1.287-0.745l0.364-1.874     c0.063-0.447,0.449-0.83,0.932-0.894c1.125-0.234,2.465-0.243,3.693,0.009c0.432,0.055,0.817,0.438,0.886,0.921l0.357,1.838     c0.447,0.204,0.875,0.453,1.283,0.746l1.803-0.624c0.087-0.04,0.232-0.07,0.381-0.07c0.318,0,0.624,0.146,0.838,0.401     c0.834,0.949,1.48,2.07,1.861,3.23c0.183,0.419,0.022,0.974-0.403,1.258l-1.358,1.185c0.022,0.232,0.034,0.48,0.034,0.752     s-0.011,0.52-0.034,0.75l1.434,1.245c0.351,0.226,0.511,0.78,0.304,1.261c-0.356,1.098-1.002,2.22-1.847,3.182     c-0.303,0.357-0.825,0.486-1.262,0.299l-1.75-0.604c-0.406,0.293-0.836,0.541-1.281,0.746l-0.364,1.873     c-0.062,0.444-0.446,0.827-0.927,0.896C23.327,32.359,22.718,32.42,22.118,32.42z M20.789,30.809c0.96,0.152,1.738,0.146,2.66,0     l0.39-2.012c0.05-0.254,0.226-0.464,0.466-0.557c0.57-0.221,1.111-0.535,1.607-0.936c0.201-0.162,0.472-0.207,0.716-0.125     l1.938,0.672c0.58-0.705,1.033-1.49,1.33-2.301l-1.549-1.337c-0.201-0.174-0.295-0.442-0.246-0.703     c0.047-0.259,0.07-0.558,0.07-0.914s-0.023-0.654-0.07-0.913c-0.05-0.261,0.045-0.529,0.246-0.703l1.547-1.342     c-0.313-0.838-0.764-1.611-1.33-2.297l-1.938,0.673c-0.244,0.083-0.516,0.036-0.717-0.125c-0.495-0.4-1.035-0.715-1.605-0.936     c-0.242-0.093-0.418-0.303-0.467-0.557l-0.391-2.014c-0.926-0.156-1.792-0.148-2.659,0l-0.39,2.014     c-0.049,0.254-0.225,0.464-0.466,0.557c-0.598,0.231-1.149,0.552-1.595,0.926c-0.202,0.17-0.478,0.22-0.728,0.135l-1.938-0.672     c-0.581,0.707-1.034,1.491-1.33,2.301l1.549,1.337c0.201,0.175,0.294,0.442,0.246,0.705c-0.048,0.255-0.071,0.553-0.071,0.911     s0.023,0.657,0.071,0.912c0.049,0.263-0.044,0.53-0.246,0.705l-1.547,1.343c0.313,0.836,0.763,1.609,1.329,2.297l1.938-0.674     c0.251-0.084,0.526-0.033,0.728,0.135c0.446,0.375,0.998,0.693,1.595,0.926c0.241,0.093,0.417,0.303,0.466,0.557L20.789,30.809z"
           id="path4477" /></g></g></g><g
     id="g4479" /><g
     id="g4481" /><g
     id="g4483" /><g
     id="g4485" /><g
     id="g4487" /><g
     id="g4489" /><g
     id="g4491" /><g
     id="g4493" /><g
     id="g4495" /><g
     id="g4497" /><g
     id="g4499" /><g
     id="g4501" /><g
     id="g4503" /><g
     id="g4505" /><g
     id="g4507" /><path
     style="fill:#f0f0f0;fill-opacity:1;stroke:#000000;stroke-width:0.11246441;stroke-miterlimit:4;stroke-dasharray:none;stroke-opacity:1"
     d="m 20.900403,30.712634 c -0.0709,-0.0709 -0.203291,-0.553845 -0.294191,-1.073199 -0.180797,-1.032981 -0.339477,-1.323946 -0.828897,-1.51991 -0.169272,-0.06778 -0.628286,-0.32653 -1.020032,-0.575008 -0.391745,-0.248477 -0.783608,-0.451777 -0.870806,-0.451777 -0.0872,0 -0.582613,0.147609 -1.100922,0.328021 -0.518309,0.180411 -0.991352,0.328021 -1.051205,0.328021 -0.201426,0 -1.27884,-1.763785 -1.27884,-2.093529 0,-0.07308 0.284675,-0.376204 0.632612,-0.673615 1.131449,-0.967143 1.054354,-0.792945 1.054354,-2.382318 0,-1.584705 0.07837,-1.402529 -1.007494,-2.341953 -0.37371,-0.323311 -0.679472,-0.659029 -0.679472,-0.746041 0,-0.153456 0.720349,-1.446138 1.056622,-1.896131 l 0.166279,-0.222511 1.005225,0.35151 c 0.552874,0.193331 1.089574,0.351303 1.192666,0.35105 0.103092,-2.53e-4 0.377224,-0.12915 0.609182,-0.286438 0.231958,-0.157289 0.705485,-0.431301 1.052282,-0.608916 0.346797,-0.177615 0.691935,-0.417768 0.766974,-0.533673 0.07504,-0.115905 0.210181,-0.626609 0.300317,-1.134899 0.09014,-0.50829 0.22247,-0.982749 0.294075,-1.054354 0.09643,-0.09643 0.414046,-0.129818 1.22471,-0.128755 0.601986,7.89e-4 1.140682,0.03242 1.197103,0.07029 0.05642,0.03787 0.178066,0.469509 0.270322,0.959198 0.25283,1.342001 0.312,1.446145 1.003088,1.765505 0.325673,0.150498 0.802869,0.426351 1.060435,0.613008 0.257566,0.186658 0.555043,0.339377 0.661059,0.339377 0.106015,0 0.63107,-0.147609 1.166788,-0.328021 0.535717,-0.180412 1.006348,-0.328021 1.045846,-0.328021 0.112153,0 0.820131,1.083582 1.082695,1.657094 l 0.236759,0.51715 -0.503178,0.432354 c -0.276747,0.237795 -0.674719,0.602616 -0.884382,0.810715 l -0.381204,0.37836 0.01079,1.392881 0.01079,1.392881 0.417274,0.388853 c 0.229501,0.21387 0.623033,0.56251 0.874518,0.774757 l 0.457243,0.385902 -0.237686,0.519173 c -0.263306,0.575135 -0.971287,1.659117 -1.08362,1.659117 -0.0395,0 -0.510129,-0.14761 -1.045846,-0.328021 -0.535718,-0.180412 -1.043556,-0.328021 -1.128529,-0.328021 -0.08497,0 -0.416288,0.169204 -0.736257,0.376009 -0.319968,0.206806 -0.827846,0.500235 -1.128618,0.652064 -0.624039,0.315014 -0.644281,0.353469 -0.898187,1.706477 -0.19995,1.065484 -0.116204,1.011136 -1.560925,1.012984 -0.725801,9.37e-4 -1.036223,-0.03415 -1.129718,-0.12764 z m 1.971161,-6.750621 c 0.536379,-0.279078 0.95598,-0.967988 0.95598,-1.569551 0,-0.450887 -0.351318,-1.092273 -0.737687,-1.346765 -0.669336,-0.440874 -1.47539,-0.39345 -2.089048,0.122909 -0.915637,0.770458 -0.633399,2.437692 0.483726,2.857461 0.278425,0.10462 1.139247,0.06487 1.387029,-0.06405 z"
     id="path6210"
     inkscape:connector-curvature="0" /><path
     style="fill:#f0f0f0;fill-opacity:1;stroke:#000000;stroke-width:0.11246441;stroke-miterlimit:4;stroke-dasharray:none;stroke-opacity:1"
     d="M 19.386176,42.504792 C 11.023361,41.366025 4.1631236,35.194816 2.1436595,26.99408 1.7296184,25.312722 1.5786628,24.014668 1.5774815,22.125562 1.575417,18.824258 2.2195201,16.043344 3.672216,13.081549 6.7557844,6.7946869 12.589491,2.6484492 19.703849,1.6872556 c 1.163828,-0.1572404 3.972588,-0.1306255 5.201478,0.049288 7.38997,1.0819129 13.441492,5.806722 16.300801,12.7270724 1.43625,3.47614 1.842147,7.894276 1.074143,11.69192 -1.087688,5.378431 -4.28476,10.104713 -8.893253,13.147037 -2.536936,1.674773 -5.559074,2.800567 -8.622271,3.211931 -1.231557,0.165389 -4.131123,0.160153 -5.378571,-0.0097 z m 4.23901,-10.167839 c 1.043571,-0.169338 1.187861,-0.35464 1.472694,-1.891276 l 0.168927,-0.911339 0.640383,-0.370754 0.640384,-0.370755 0.954547,0.321459 c 1.057575,0.356156 1.361333,0.387659 1.758334,0.182362 0.554594,-0.286792 1.747344,-2.173465 2.11538,-3.346075 0.248517,-0.791812 0.152591,-1.008349 -0.821516,-1.85442 l -0.81211,-0.705369 0.0032,-0.796623 0.0032,-0.796623 0.831362,-0.728772 c 0.995665,-0.872799 1.069416,-1.067219 0.747122,-1.96954 -0.429635,-1.202844 -1.554919,-2.939952 -2.082525,-3.214809 -0.379599,-0.197752 -0.693641,-0.163576 -1.742426,0.189619 L 26.547567,16.395497 25.900373,16.0208 25.253179,15.646102 25.092615,14.738707 c -0.181303,-1.024603 -0.345897,-1.445555 -0.64054,-1.638183 -0.491354,-0.321229 -2.655301,-0.45582 -3.885181,-0.241646 -0.955399,0.166376 -1.111363,0.359421 -1.387175,1.716982 -0.124611,0.61334 -0.2369,1.121773 -0.249533,1.129852 -0.01263,0.0081 -0.307686,0.168764 -0.655678,0.35708 l -0.632711,0.342391 -0.901425,-0.326302 c -1.536717,-0.55627 -1.812864,-0.451746 -2.832041,1.071938 -0.878856,1.313905 -1.307799,2.553471 -1.084749,3.134729 0.03027,0.0789 0.430929,0.464921 0.890343,0.857836 l 0.835298,0.714391 0,0.733424 0,0.733423 -0.679472,0.587807 c -0.990727,0.857071 -1.100206,1.003913 -1.100748,1.47643 -9.37e-4,0.814853 1.18671,3.026328 2.016544,3.754931 0.441299,0.387467 0.818255,0.381261 1.975979,-0.03252 l 0.907863,-0.324482 0.553646,0.324482 c 0.304505,0.178466 0.590571,0.324483 0.635701,0.324483 0.04513,0 0.131237,0.242501 0.19135,0.538892 0.06011,0.296391 0.164566,0.808091 0.232116,1.137114 0.157607,0.767671 0.413095,1.033877 1.142541,1.190478 0.674668,0.144841 2.406051,0.163624 3.200437,0.03472 l 6e-6,0 z"
     id="path6212"
     inkscape:connector-curvature="0" /></svg>