<?xml version="1.0" encoding="UTF-8" standalone="no"?>
<!-- Generator: Adobe Illustrator 16.0.0, SVG Export Plug-In . SVG Version: 6.00 Build 0)  -->

<svg
   xmlns:dc="http://purl.org/dc/elements/1.1/"
   xmlns:cc="http://creativecommons.org/ns#"
   xmlns:rdf="http://www.w3.org/1999/02/22-rdf-syntax-ns#"
   xmlns:svg="http://www.w3.org/2000/svg"
   xmlns="http://www.w3.org/2000/svg"
   xmlns:sodipodi="http://sodipodi.sourceforge.net/DTD/sodipodi-0.dtd"
   xmlns:inkscape="http://www.inkscape.org/namespaces/inkscape"
   version="1.1"
   id="Capa_1"
   x="0px"
   y="0px"
   width="44.238px"
   height="44.238px"
   viewBox="0 0 44.238 44.238"
   style="enable-background:new 0 0 44.238 44.238;"
   xml:space="preserve"
   inkscape:version="0.91 r13725"
   sodipodi:docname="shop.svg"><metadata
     id="metadata4568"><rdf:RDF><cc:Work
         rdf:about=""><dc:format>image/svg+xml</dc:format><dc:type
           rdf:resource="http://purl.org/dc/dcmitype/StillImage" /></cc:Work></rdf:RDF></metadata><defs
     id="defs4566" /><sodipodi:namedview
     pagecolor="#ffffff"
     bordercolor="#666666"
     borderopacity="1"
     objecttolerance="10"
     gridtolerance="10"
     guidetolerance="10"
     inkscape:pageopacity="0"
     inkscape:pageshadow="2"
     inkscape:window-width="1280"
     inkscape:window-height="1000"
     id="namedview4564"
     showgrid="false"
     inkscape:zoom="10.66956"
     inkscape:cx="19.471598"
     inkscape:cy="18.332763"
     inkscape:window-x="0"
     inkscape:window-y="24"
     inkscape:window-maximized="1"
     inkscape:current-layer="Capa_1" /><g
     id="g4516"
     style="fill:#000000;fill-opacity:1"><g
       id="g4518"
       style="fill:#000000;fill-opacity:1"><path
         d="M22.119,44.237C9.922,44.237,0,34.315,0,22.12C0,9.924,9.922,0.001,22.119,0.001S44.238,9.923,44.238,22.12    S34.314,44.237,22.119,44.237z M22.119,1.501C10.75,1.501,1.5,10.751,1.5,22.12s9.25,20.619,20.619,20.619    s20.619-9.25,20.619-20.619S33.488,1.501,22.119,1.501z"
         id="path4520"
         style="fill:#000000;fill-opacity:1" /><g
         id="g4522"
         style="fill:#000000;fill-opacity:1"><path
           d="M31.432,23.206H12.805c-0.414,0-0.75-0.336-0.75-0.75s0.336-0.75,0.75-0.75h18.626c0.414,0,0.75,0.336,0.75,0.75     S31.846,23.206,31.432,23.206z"
           id="path4524"
           style="fill:#000000;fill-opacity:1" /></g><g
         id="g4526"
         style="fill:#000000;fill-opacity:1"><path
           d="M31.432,17.17H12.805c-0.414,0-0.75-0.336-0.75-0.75s0.336-0.75,0.75-0.75h18.626c0.414,0,0.75,0.336,0.75,0.75     S31.846,17.17,31.432,17.17z"
           id="path4528"
           style="fill:#000000;fill-opacity:1" /></g><g
         id="g4530"
         style="fill:#000000;fill-opacity:1"><path
           d="M31.432,29.254H12.805c-0.414,0-0.75-0.336-0.75-0.75s0.336-0.75,0.75-0.75h18.626c0.414,0,0.75,0.336,0.75,0.75     S31.846,29.254,31.432,29.254z"
           id="path4532"
           style="fill:#000000;fill-opacity:1" /></g></g></g><g
     id="g4534" /><g
     id="g4536" /><g
     id="g4538" /><g
     id="g4540" /><g
     id="g4542" /><g
     id="g4544" /><g
     id="g4546" /><g
     id="g4548" /><g
     id="g4550" /><g
     id="g4552" /><g
     id="g4554" /><g
     id="g4556" /><g
     id="g4558" /><g
     id="g4560" /><g
     id="g4562" /><path
     style="fill:#f0f0f0;fill-opacity:1;stroke:#000000;stroke-width:0.11246949;stroke-miterlimit:4;stroke-dasharray:none;stroke-opacity:1"
     d="M 19.462225,42.522401 C 14.880133,41.871285 10.791328,39.845013 7.5805816,36.634266 4.4208428,33.474527 2.4239807,29.477535 1.7428474,24.949245 1.5257416,23.505889 1.5253049,20.697722 1.7419658,19.278908 2.0895601,17.00267 2.671868,15.13071 3.666181,13.093087 6.6568437,6.9643868 12.400663,2.7874757 19.274776,1.7425017 c 1.409459,-0.2142601 4.319986,-0.2131636 5.717199,0.00215 6.831951,1.0528376 12.504215,5.1598163 15.544192,11.2547063 1.416016,2.838988 2.12289,5.881785 2.12289,9.138146 0,2.361162 -0.383464,4.660613 -1.139618,6.833743 -0.644077,1.851032 -2.149078,4.538796 -3.388801,6.052023 -0.625599,0.763616 -2.119708,2.271212 -2.875822,2.901779 -2.74027,2.285273 -6.066886,3.825987 -9.653631,4.471058 -1.418814,0.255172 -4.749766,0.323696 -6.13896,0.12629 z m 12.417162,-13.35483 c 0.09558,-0.05115 0.221753,-0.238363 0.280387,-0.416022 0.151106,-0.45786 -0.06351,-0.853925 -0.537331,-0.991634 -0.24548,-0.07135 -3.176536,-0.09355 -9.754944,-0.07389 l -9.404024,0.0281 -0.226176,0.262969 c -0.295569,0.343648 -0.294055,0.755507 0.0039,1.053435 l 0.230051,0.230052 9.617191,0 c 6.182626,0 9.679253,-0.03322 9.790972,-0.09301 l 4e-6,0 z m 0.06172,-6.127534 c 0.36193,-0.311318 0.36193,-0.837668 0,-1.148986 l -0.258283,-0.222166 -9.578111,0.003 c -10.13647,0.0032 -9.744893,-0.01395 -9.984563,0.436049 -0.175792,0.330063 -0.127484,0.587909 0.164931,0.880323 l 0.273963,0.273965 9.56189,0 9.56189,0 0.258283,-0.222166 z m -0.06707,-5.960074 c 0.09264,-0.04958 0.221511,-0.218283 0.286383,-0.374898 0.138043,-0.333267 -9.56e-4,-0.791655 -0.286383,-0.94441 -0.104687,-0.05603 -3.808158,-0.09014 -9.785623,-0.09014 l -9.617191,0 -0.230051,0.230052 c -0.145014,0.145013 -0.230052,0.337135 -0.230052,0.519745 0,0.18261 0.08504,0.374731 0.230052,0.519745 l 0.230051,0.230052 9.617191,0 c 5.977465,0 9.680936,-0.03412 9.785623,-0.09014 z"
     id="path6192"
     inkscape:connector-curvature="0" /></svg>